<mxfile host="app.diagrams.net" modified="2023-05-07T03:36:50.125Z" agent="Mozilla/5.0 (Windows NT 10.0; Win64; x64) AppleWebKit/537.36 (KHTML, like Gecko) Chrome/112.0.0.0 Safari/537.36 Edg/112.0.1722.68" version="21.2.9" etag="f-EtI79TxmSafRuMxg1U" type="github">
  <diagram name="第 1 页" id="QN8igazdph4XkkVjIplG">
    <mxGraphModel>
      <root>
        <mxCell id="0" />
        <mxCell id="1" parent="0" />
        <mxCell id="2" value="Project Manager" style="whiteSpace=wrap;strokeWidth=2;" vertex="1" parent="1">
          <mxGeometry x="266" width="133" height="33" as="geometry" />
        </mxCell>
        <mxCell id="3" value="Team Leader 1" style="whiteSpace=wrap;strokeWidth=2;" vertex="1" parent="1">
          <mxGeometry x="93" y="83" width="121" height="33" as="geometry" />
        </mxCell>
        <mxCell id="4" value="Team Leader 2" style="whiteSpace=wrap;strokeWidth=2;" vertex="1" parent="1">
          <mxGeometry x="451" y="83" width="121" height="33" as="geometry" />
        </mxCell>
        <mxCell id="5" value="Team Member 1" style="whiteSpace=wrap;strokeWidth=2;" vertex="1" parent="1">
          <mxGeometry y="167" width="129" height="33" as="geometry" />
        </mxCell>
        <mxCell id="6" value="Team Member 2" style="whiteSpace=wrap;strokeWidth=2;" vertex="1" parent="1">
          <mxGeometry x="179" y="167" width="129" height="33" as="geometry" />
        </mxCell>
        <mxCell id="7" value="Team Member 3" style="whiteSpace=wrap;strokeWidth=2;" vertex="1" parent="1">
          <mxGeometry x="358" y="167" width="129" height="33" as="geometry" />
        </mxCell>
        <mxCell id="8" value="Team Member 4" style="whiteSpace=wrap;strokeWidth=2;" vertex="1" parent="1">
          <mxGeometry x="536" y="167" width="129" height="33" as="geometry" />
        </mxCell>
        <mxCell id="9" value="" style="curved=1;startArrow=none;endArrow=block;exitX=0.002757854031440907;exitY=0.9741734453139547;entryX=0.5021693962664644;entryY=0.012121258359966856;" edge="1" parent="1" source="2" target="3">
          <mxGeometry relative="1" as="geometry">
            <Array as="points">
              <mxPoint x="154" y="58" />
            </Array>
          </mxGeometry>
        </mxCell>
        <mxCell id="10" value="" style="curved=1;startArrow=none;endArrow=block;exitX=0.9991511581535626;exitY=0.9744404288071224;entryX=0.49908633271524727;entryY=0.012121258359966856;" edge="1" parent="1" source="2" target="4">
          <mxGeometry relative="1" as="geometry">
            <Array as="points">
              <mxPoint x="511" y="58" />
            </Array>
          </mxGeometry>
        </mxCell>
        <mxCell id="11" value="" style="curved=1;startArrow=none;endArrow=block;exitX=0.20633989978419157;exitY=1.0242425167199336;entryX=0.49907944553582245;entryY=-0.006060513583096591;" edge="1" parent="1" source="3" target="5">
          <mxGeometry relative="1" as="geometry">
            <Array as="points">
              <mxPoint x="64" y="142" />
            </Array>
          </mxGeometry>
        </mxCell>
        <mxCell id="12" value="" style="curved=1;startArrow=none;endArrow=block;exitX=0.797998892748737;exitY=1.0242425167199336;entryX=0.4972383366074673;entryY=-0.006060513583096591;" edge="1" parent="1" source="3" target="6">
          <mxGeometry relative="1" as="geometry">
            <Array as="points">
              <mxPoint x="243" y="142" />
            </Array>
          </mxGeometry>
        </mxCell>
        <mxCell id="13" value="" style="curved=1;startArrow=none;endArrow=block;exitX=0.20291938940549756;exitY=1.0242425167199336;entryX=0.49539722767911215;entryY=-0.006060513583096591;" edge="1" parent="1" source="4" target="7">
          <mxGeometry relative="1" as="geometry">
            <Array as="points">
              <mxPoint x="422" y="142" />
            </Array>
          </mxGeometry>
        </mxCell>
        <mxCell id="14" value="" style="curved=1;startArrow=none;endArrow=block;exitX=0.7952532760249971;exitY=1.0242425167199336;entryX=0.5028887608254603;entryY=-0.006060513583096591;" edge="1" parent="1" source="4" target="8">
          <mxGeometry relative="1" as="geometry">
            <Array as="points">
              <mxPoint x="601" y="142" />
            </Array>
          </mxGeometry>
        </mxCell>
      </root>
    </mxGraphModel>
  </diagram>
</mxfile>
